<?xml version="1.0" standalone="no"?>
<!DOCTYPE svg PUBLIC "-//W3C//DTD SVG 20010904//EN"
 "http://www.w3.org/TR/2001/REC-SVG-20010904/DTD/svg10.dtd">
<svg version="1.0" xmlns="http://www.w3.org/2000/svg"
 width="64" height="64" viewBox="0 0 128.000000 128.000000"
 preserveAspectRatio="xMidYMid meet">

<g transform="translate(0.000000,128.000000) scale(0.100000,-0.100000)"
fill="#000000" stroke="none">
<path d="M0 640 l0 -640 640 0 640 0 0 640 0 640 -640 0 -640 0 0 -640z m951
468 c56 -19 101 -54 133 -105 26 -42 30 -57 31 -118 0 -78 -18 -127 -68 -176
-52 -52 -83 -62 -212 -69 -191 -10 -195 -15 -195 -289 l0 -191 -240 0 -240 0
0 261 c0 205 3 260 13 255 150 -63 288 -38 387 71 35 38 54 70 66 111 9 31 23
78 31 103 34 113 180 186 294 147z"/>
</g>
</svg>
