<svg version="1.0" xmlns="http://www.w3.org/2000/svg"
 width="64" height="64" viewBox="0 0 200.000000 200.000000"
 preserveAspectRatio="xMidYMid meet">
<metadata>
Created by potrace 1.16, written by Peter Selinger 2001-2019
</metadata>
<g transform="translate(0.000000,200.000000) scale(0.100000,-0.100000)"
fill="#000000" stroke="none">
<path d="M0 1000 l0 -1000 1000 0 1000 0 0 1000 0 1000 -1000 0 -1000 0 0
-1000z m1288 624 c41 -8 102 -24 138 -35 l64 -20 -28 -57 c-45 -90 -74 -170
-67 -181 3 -6 16 -11 28 -11 59 0 136 -98 227 -291 52 -110 36 -205 -70 -425
-86 -179 -166 -234 -340 -234 -49 0 -91 4 -94 8 -3 5 20 19 50 32 30 12 53 24
51 26 -2 2 -30 -7 -61 -21 -32 -14 -62 -22 -68 -19 -6 4 -8 3 -5 -3 9 -14 -52
-31 -161 -45 -71 -9 -113 -9 -185 0 -101 13 -189 36 -209 55 -7 7 -25 18 -41
24 -31 14 -67 67 -67 99 0 29 35 71 78 94 l37 19 -73 1 c-63 0 -76 3 -97 24
-28 28 -46 88 -38 127 8 40 62 92 119 114 l49 19 -43 8 c-59 10 -99 41 -113
88 -22 72 14 160 76 186 41 17 44 31 12 43 -40 15 -77 68 -77 110 0 20 -5 42
-11 48 -8 8 2 23 36 54 57 53 86 69 117 67 13 -1 64 15 113 34 81 33 231 70
325 82 60 7 252 -4 328 -20z"/>
<path d="M685 1179 c-46 -7 -85 -35 -85 -59 0 -4 8 -17 18 -29 20 -26 74 -36
136 -27 42 7 46 10 52 42 4 20 2 46 -5 60 -12 26 -27 28 -116 13z"/>
<path d="M752 1017 c-27 -29 -28 -37 -3 -37 26 0 51 -10 51 -20 0 -5 -23 -13
-52 -20 -63 -13 -88 -34 -88 -71 0 -60 41 -69 143 -34 27 9 37 10 37 1 0 -23
-32 -57 -78 -81 l-47 -26 85 6 c47 4 111 12 143 18 l58 12 -60 85 c-32 47 -84
109 -113 138 l-54 52 -22 -23z"/>
<path d="M940 735 c-30 -7 -101 -14 -157 -14 -93 -1 -103 -3 -113 -22 -7 -11
-9 -23 -6 -26 3 -4 66 -7 138 -7 101 -1 147 3 191 17 31 10 57 21 57 26 0 11
-35 41 -46 40 -5 -1 -34 -7 -64 -14z"/>
<path d="M737 625 c-76 -21 -95 -46 -60 -80 12 -13 31 -16 77 -14 81 4 96 12
96 52 0 58 -24 67 -113 42z"/>
</g>
</svg>
