<?xml version="1.0" encoding="utf-8"?>
<!-- Generator: Adobe Illustrator 25.0.1, SVG Export Plug-In . SVG Version: 6.00 Build 0)  -->
<svg version="1.0" id="Layer_1" xmlns="http://www.w3.org/2000/svg" width='84' height='84' xmlns:xlink="http://www.w3.org/1999/xlink" x="0px" y="0px"
	 viewBox="0 0 1378 984.9" style="enable-background:new 0 0 1378 984.9;" xml:space="preserve">
<style type="text/css">
	.st0{fill:#05A081;}
	.st1{fill:#FFFFFF;}
	.st2{fill:none;}
</style>
<path class="st0" d="M378.4,137.4h621.2c24.5,0,44.4,19.9,44.4,44.4v621.2c0,24.5-19.9,44.4-44.4,44.4H378.4
	c-24.5,0-44.4-19.9-44.4-44.4V181.8C334,157.3,353.9,137.4,378.4,137.4z"/>
<path class="st1" d="M622.4,603.4h85.7v-83.2H734c38.3-0.5,68.9-31.9,68.5-70.1c-0.5-37.6-30.8-68-68.5-68.5H622.4V603.4z
	 M752.5,647.8H578.1V337.1H734c62.8,0,113.7,50.9,113.7,113.7c0,55.7-40.3,103.1-95.2,112.2L752.5,647.8z"/>
<rect x="314" y="117.4" class="st2" width="750" height="750"/>
</svg>
