<?xml version="1.0" encoding="utf-8"?>
<!-- Generator: Adobe Illustrator 25.2.2, SVG Export Plug-In . SVG Version: 6.00 Build 0)  -->
<svg version="1.1" id="Layer_1" xmlns="http://www.w3.org/2000/svg" width="160" height="44" xmlns:xlink="http://www.w3.org/1999/xlink" x="0px" y="0px"
	 viewBox="0 0 367.4 36.1" style="enable-background:new 0 0 367.4 36.1;" xml:space="preserve">
<style type="text/css">
	.st0{fill:#FFFFFF;}
</style>
<g transform="translate(-.63 -5.01)">
	<path class="st0" d="M19.3,32.8l2.2-17.2h5.9l-4.5,25.1h-5.7l-3.3-16l-3.2,16H5.1L0.6,15.5h5.9l2.2,17.3l3.2-17.3h4.3L19.3,32.8z"
		/>
	<path class="st0" d="M44,41.1c-1.8,0-3.6-0.3-5.3-1c-1.5-0.6-2.9-1.5-4.1-2.6c-1.2-1.1-2.1-2.4-2.7-3.8c-0.6-1.5-0.9-3.1-0.9-4.7
		v-0.9c0-1.8,0.3-3.6,0.9-5.3c0.6-1.5,1.4-2.9,2.5-4.1c1.1-1.2,2.4-2.1,3.9-2.7c1.5-0.7,3.2-1,4.8-1c1.7,0,3.3,0.3,4.8,0.9
		c1.4,0.6,2.6,1.4,3.6,2.5c1,1.1,1.8,2.5,2.2,3.9c0.5,1.6,0.8,3.3,0.8,5v2.7h-17c0.1,0.8,0.4,1.6,0.8,2.3c0.4,0.7,0.9,1.3,1.5,1.8
		c0.6,0.5,1.3,0.9,2,1.2c0.8,0.3,1.6,0.4,2.5,0.4c0.6,0,1.3-0.1,1.9-0.2c0.6-0.1,1.2-0.3,1.8-0.5c0.6-0.2,1.1-0.5,1.6-0.9
		c0.5-0.3,0.9-0.7,1.3-1.1l3.2,3.5c-0.4,0.6-1,1.2-1.6,1.7c-0.7,0.6-1.5,1.1-2.3,1.5c-0.9,0.4-1.9,0.8-2.9,1
		C46.3,41,45.2,41.1,44,41.1z M43.2,20.3c-0.7,0-1.4,0.1-2,0.4c-0.6,0.2-1.1,0.6-1.6,1.1c-0.5,0.5-0.9,1.1-1.2,1.7
		c-0.3,0.7-0.6,1.5-0.7,2.2h10.6v-0.5c0-0.7-0.1-1.3-0.4-1.9c-0.2-0.6-0.6-1.1-1-1.6c-0.5-0.4-1-0.8-1.6-1
		C44.7,20.4,44,20.3,43.2,20.3L43.2,20.3z"/>
	<path class="st0" d="M82.9,28.3c0,1.7-0.2,3.5-0.6,5.2c-0.4,1.4-1,2.8-1.8,4c-0.8,1.1-1.8,2-3.1,2.6c-1.3,0.7-2.8,1-4.3,0.9
		c-2.6,0.1-5-1-6.6-3.1l-0.3,2.7h-5.8V5h6.5v12.8c0.7-0.8,1.6-1.5,2.6-2c1.1-0.5,2.3-0.7,3.6-0.7c1.5,0,3,0.3,4.3,1
		c1.2,0.6,2.3,1.5,3.1,2.6c0.9,1.2,1.5,2.6,1.8,4c0.4,1.7,0.6,3.4,0.6,5.1V28.3z M76.5,27.9c0-1-0.1-1.9-0.2-2.9
		c-0.1-0.8-0.4-1.7-0.8-2.4c-0.4-0.7-0.9-1.2-1.5-1.6c-0.7-0.4-1.6-0.6-2.4-0.6c-1,0-2,0.2-2.9,0.7c-0.7,0.5-1.3,1.2-1.7,2v10
		c0.4,0.8,1,1.5,1.7,2c0.9,0.5,1.9,0.8,2.9,0.7c0.8,0,1.7-0.2,2.4-0.6c0.6-0.4,1.2-0.9,1.5-1.6c0.4-0.7,0.7-1.6,0.8-2.4
		c0.2-1,0.2-2,0.2-3L76.5,27.9z"/>
	<path class="st0" d="M114,36c0.6,0,1.2-0.1,1.8-0.3c0.5-0.2,1.1-0.4,1.5-0.8c0.4-0.3,0.8-0.7,1-1.2c0.2-0.5,0.4-1,0.3-1.6h6.1
		c0,1.3-0.2,2.5-0.8,3.6c-0.6,1.1-1.3,2.1-2.3,2.9c-1,0.8-2.2,1.5-3.4,1.9c-1.3,0.5-2.7,0.7-4.1,0.7c-1.8,0-3.5-0.3-5.1-1
		c-1.4-0.6-2.7-1.5-3.7-2.7c-1-1.2-1.8-2.5-2.2-4c-0.5-1.6-0.8-3.3-0.8-5v-0.7c0-1.7,0.2-3.4,0.7-5c0.5-1.5,1.2-2.8,2.2-4
		c1-1.2,2.3-2.1,3.7-2.7c1.6-0.7,3.3-1,5.1-1c1.5,0,2.9,0.2,4.3,0.7c1.3,0.4,2.4,1.1,3.4,2c1,0.8,1.7,1.9,2.2,3.1
		c0.5,1.3,0.8,2.6,0.8,4h-6.1c0-0.6-0.1-1.2-0.3-1.8c-0.2-0.5-0.5-1-0.9-1.4c-0.4-0.4-0.9-0.8-1.5-1c-0.6-0.2-1.3-0.4-1.9-0.4
		c-1.7-0.1-3.3,0.8-4.1,2.3c-0.4,0.7-0.7,1.6-0.8,2.4c-0.2,0.9-0.3,1.9-0.2,2.8v0.7c0,0.9,0.1,1.9,0.2,2.8c0.1,0.8,0.4,1.6,0.8,2.4
		c0.4,0.7,0.9,1.2,1.6,1.7C112.2,35.8,113.1,36,114,36z"/>
	<path class="st0" d="M130.5,27.9c0-1.7,0.2-3.4,0.8-5.1c0.5-1.5,1.3-2.9,2.3-4.1c1-1.2,2.3-2.1,3.7-2.7c3.2-1.3,6.8-1.3,10.1,0
		c1.4,0.6,2.7,1.5,3.7,2.7c1,1.2,1.8,2.6,2.3,4c0.5,1.6,0.8,3.3,0.8,5.1v0.5c0,1.7-0.2,3.4-0.8,5.1c-0.5,1.5-1.3,2.8-2.3,4
		c-1,1.2-2.3,2.1-3.7,2.7c-1.6,0.7-3.3,1-5,1c-1.7,0-3.5-0.3-5.1-1c-1.4-0.6-2.7-1.5-3.7-2.7c-1-1.2-1.8-2.5-2.3-4
		c-0.5-1.6-0.8-3.4-0.8-5.1L130.5,27.9z M136.9,28.3c0,1,0.1,2,0.3,3c0.2,0.9,0.5,1.7,1,2.4c0.9,1.4,2.5,2.3,4.1,2.2
		c0.9,0,1.7-0.2,2.4-0.6c0.7-0.4,1.2-1,1.7-1.6c0.4-0.7,0.8-1.6,0.9-2.4c0.2-1,0.3-2,0.3-3v-0.5c0-1-0.1-1.9-0.3-2.9
		c-0.2-0.8-0.5-1.7-0.9-2.4c-0.4-0.7-1-1.2-1.7-1.6c-2.3-1.4-5.2-0.6-6.6,1.6c-0.5,0.7-0.8,1.6-1,2.4c-0.2,1-0.3,1.9-0.3,2.9
		L136.9,28.3z"/>
	<path class="st0" d="M159.2,27.9c0-1.8,0.2-3.5,0.7-5.2c0.4-1.5,1-2.8,1.9-4.1c0.8-1.1,1.9-2,3.1-2.6c1.3-0.6,2.7-1,4.2-0.9
		c1.2,0,2.4,0.2,3.5,0.7c1,0.5,1.9,1.2,2.7,2V5h6.5v35.7h-5.8l-0.3-2.7c-0.8,0.9-1.7,1.7-2.8,2.3c-1.2,0.6-2.4,0.8-3.7,0.8
		c-1.4,0-2.9-0.3-4.1-1c-1.2-0.6-2.3-1.6-3.1-2.7c-0.9-1.2-1.5-2.6-1.9-4c-0.5-1.7-0.7-3.4-0.7-5.1L159.2,27.9z M165.7,28.4
		c0,1,0.1,2,0.3,2.9c0.2,0.8,0.4,1.6,0.9,2.4c0.4,0.6,0.9,1.2,1.6,1.6c0.7,0.4,1.5,0.6,2.3,0.6c1,0,1.9-0.2,2.8-0.7
		c0.7-0.5,1.4-1.2,1.8-2V23c-0.8-1.7-2.6-2.8-4.5-2.7c-0.8,0-1.6,0.2-2.3,0.6c-0.7,0.4-1.2,1-1.6,1.6c-0.4,0.7-0.7,1.6-0.9,2.4
		c-0.2,1-0.3,2-0.3,3V28.4z"/>
	<path class="st0" d="M200.6,41.1c-1.8,0-3.6-0.3-5.3-1c-1.5-0.6-2.9-1.5-4.1-2.6c-1.1-1.1-2-2.4-2.6-3.8c-0.6-1.5-0.9-3.1-0.9-4.7
		V28c0-1.8,0.3-3.6,0.9-5.3c0.6-1.5,1.4-2.9,2.5-4.1c1.1-1.2,2.4-2.1,3.8-2.7c1.5-0.7,3.2-1,4.9-1c1.7,0,3.3,0.3,4.8,0.9
		c1.4,0.6,2.6,1.4,3.6,2.5c1,1.1,1.8,2.5,2.2,3.9c0.5,1.6,0.8,3.3,0.8,5v2.7h-17c0.1,0.8,0.4,1.6,0.8,2.3c0.4,0.7,0.9,1.3,1.4,1.8
		c0.6,0.5,1.3,0.9,2,1.2c0.8,0.3,1.6,0.5,2.5,0.6c0.6,0,1.3-0.1,1.9-0.2c0.6-0.1,1.2-0.3,1.8-0.5c0.6-0.2,1.1-0.5,1.6-0.9
		c0.5-0.4,0.9-0.8,1.3-1.2l3.2,3.5c-0.4,0.6-1,1.2-1.6,1.7c-0.7,0.6-1.4,1-2.2,1.4c-0.9,0.4-1.9,0.8-2.9,1
		C202.9,41,201.8,41.1,200.6,41.1L200.6,41.1z M199.8,20.3c-0.7,0-1.4,0.1-2,0.4c-0.6,0.2-1.1,0.6-1.6,1.1c-0.5,0.5-0.9,1.1-1.1,1.7
		c-0.3,0.7-0.6,1.5-0.7,2.2H205v-0.5c0-0.7-0.2-1.3-0.4-1.9c-0.2-0.6-0.6-1.1-1-1.6c-0.5-0.4-1-0.8-1.6-1
		C201.3,20.4,200.6,20.3,199.8,20.3L199.8,20.3z"/>
	<path class="st0" d="M243.3,9.4v6.1h9.4v4.8h-9.4v10.8c0,0.8,0.1,1.5,0.3,2.3c0.2,0.6,0.5,1.1,0.9,1.5c0.4,0.4,0.9,0.6,1.4,0.8
		c0.6,0.2,1.2,0.2,1.8,0.2c0.5,0,1,0,1.5-0.1s1-0.1,1.5-0.2s0.9-0.1,1.3-0.2s0.8-0.2,1.1-0.2l0.6,4.4c-0.5,0.3-1,0.5-1.6,0.7
		c-0.6,0.2-1.3,0.4-1.9,0.5c-0.7,0.1-1.4,0.2-2.1,0.3s-1.5,0.1-2.2,0.1c-1.3,0-2.5-0.2-3.8-0.5c-1.1-0.3-2.1-0.9-2.9-1.7
		c-0.8-0.8-1.5-1.8-1.9-2.9c-0.5-1.4-0.7-2.8-0.6-4.2V20.3h-5.7v-4.8h5.7V9.4L243.3,9.4z"/>
	<path class="st0" d="M259.1,27.9c0-1.7,0.2-3.4,0.8-5.1c0.5-1.5,1.3-2.9,2.3-4.1c1-1.2,2.3-2.1,3.7-2.7c3.2-1.3,6.8-1.3,10.1,0
		c1.4,0.6,2.7,1.5,3.7,2.7c1,1.2,1.8,2.6,2.3,4c0.5,1.6,0.8,3.3,0.8,5.1v0.5c0,1.7-0.2,3.4-0.8,5.1c-0.5,1.5-1.3,2.8-2.3,4
		c-1,1.2-2.3,2.1-3.7,2.7c-1.6,0.7-3.3,1-5,1c-1.7,0-3.5-0.3-5-1c-1.4-0.6-2.7-1.5-3.7-2.7c-1-1.2-1.8-2.5-2.3-4
		c-0.5-1.6-0.8-3.4-0.8-5.1L259.1,27.9z M265.5,28.3c0,1,0.1,2,0.3,3c0.2,0.9,0.5,1.7,1,2.4c0.4,0.7,1,1.2,1.7,1.6
		c0.8,0.4,1.6,0.6,2.5,0.6c0.9,0,1.7-0.2,2.4-0.6c0.7-0.4,1.2-1,1.7-1.6c0.4-0.7,0.8-1.6,0.9-2.4c0.2-1,0.3-2,0.3-3v-0.5
		c0-1-0.1-1.9-0.3-2.9c-0.2-0.8-0.5-1.7-0.9-2.4c-0.4-0.7-1-1.2-1.7-1.6c-0.8-0.4-1.6-0.6-2.5-0.6c-0.9,0-1.7,0.2-2.5,0.6
		c-0.7,0.4-1.3,1-1.7,1.6c-0.5,0.7-0.8,1.6-1,2.4c-0.2,1-0.3,1.9-0.3,2.9L265.5,28.3z"/>
	<path class="st0" d="M287.6,27.9c0-1.7,0.3-3.4,0.8-5.1c0.5-1.5,1.3-2.9,2.3-4.1c1-1.2,2.3-2.1,3.7-2.7c3.2-1.3,6.8-1.3,10.1,0
		c1.4,0.6,2.7,1.5,3.7,2.7c1,1.2,1.8,2.6,2.3,4c0.5,1.6,0.8,3.3,0.8,5.1v0.5c0,1.7-0.3,3.4-0.8,5.1c-0.5,1.5-1.3,2.8-2.3,4
		c-1,1.2-2.3,2.1-3.7,2.7c-3.2,1.3-6.8,1.3-10.1,0c-1.4-0.6-2.7-1.5-3.7-2.7c-1-1.2-1.8-2.5-2.3-4c-0.5-1.6-0.8-3.4-0.8-5.1
		L287.6,27.9z M294.1,28.3c0,1,0.1,2,0.3,3c0.2,0.9,0.5,1.7,1,2.4c0.4,0.7,1,1.2,1.7,1.6c0.8,0.4,1.6,0.6,2.5,0.6
		c1.7,0.1,3.2-0.8,4.1-2.2c0.5-0.7,0.8-1.6,0.9-2.4c0.2-1,0.3-2,0.3-3v-0.5c0-1-0.1-1.9-0.3-2.9c-0.2-0.9-0.5-1.7-0.9-2.4
		c-0.4-0.7-1-1.2-1.7-1.6c-0.8-0.4-1.6-0.6-2.5-0.6c-1.7-0.1-3.3,0.8-4.1,2.2c-0.5,0.7-0.8,1.6-1,2.4c-0.2,1-0.3,1.9-0.3,2.9
		L294.1,28.3z"/>
	<path class="st0" d="M318.4,5h14v30.4h7.2v5.2h-21.2v-5.2h7.5V10.3h-7.5V5z"/>
	<path class="st0" d="M361.7,33.8c0-0.4-0.1-0.7-0.3-1c-0.3-0.4-0.6-0.6-1-0.8c-0.6-0.3-1.2-0.5-1.8-0.7c-0.8-0.2-1.7-0.4-2.9-0.6
		c-1.4-0.3-2.7-0.6-4-1.1c-1.1-0.4-2.2-0.9-3.1-1.6c-0.8-0.6-1.5-1.3-2-2.2c-0.5-0.9-0.8-1.8-0.7-2.8c0-1,0.2-2.1,0.7-3
		c0.5-1,1.3-1.8,2.1-2.5c1-0.8,2.2-1.3,3.4-1.7c1.5-0.4,3-0.7,4.5-0.6c1.6,0,3.2,0.2,4.7,0.6c1.3,0.4,2.5,0.9,3.5,1.7
		c0.9,0.7,1.7,1.6,2.2,2.6c0.5,1,0.8,2.1,0.8,3.2h-6.5c0-1-0.4-1.9-1.2-2.4c-1-0.7-2.3-1.1-3.6-1c-1.2-0.1-2.4,0.2-3.4,0.8
		c-1,0.6-1.4,1.9-0.9,3c0.2,0.4,0.5,0.7,0.8,0.9c0.5,0.3,1,0.5,1.6,0.7c0.9,0.2,1.7,0.4,2.6,0.5c1.4,0.2,2.8,0.5,4.2,1
		c1.2,0.3,2.3,0.8,3.4,1.5c0.9,0.6,1.7,1.3,2.2,2.2c0.6,0.9,0.8,2,0.8,3.1c0,1.1-0.3,2.1-0.8,3.1c-0.6,1-1.3,1.8-2.3,2.4
		c-1.1,0.7-2.3,1.3-3.6,1.6c-1.5,0.4-3.1,0.6-4.7,0.6c-1.7,0-3.4-0.2-5-0.8c-1.3-0.4-2.5-1.1-3.6-1.9c-0.9-0.7-1.7-1.7-2.2-2.7
		c-0.5-0.9-0.7-2-0.8-3h6.1c0,0.6,0.2,1.2,0.6,1.8c0.3,0.5,0.7,0.9,1.2,1.2c0.5,0.3,1.1,0.5,1.8,0.7c0.7,0.1,1.3,0.2,2,0.2
		c1.3,0.1,2.5-0.2,3.6-0.8C361.2,35.4,361.7,34.6,361.7,33.8L361.7,33.8z"/>
</g>
</svg>
